# xmcd
#
# Track frame offsets: 
#        150
#        17985
#        42150
#        60905
#        81382
#        99717
#        116212
#        131812
#        151302
#        168177
#
# Disc length: 2490 seconds
#
# Revision: 0
# Processed by: cddbd v1.4PL0 Copyright (c) Steve Scherf et al.
# Submitted via: ExactAudioCopy v0.90b4
#
DISCID=8009b80a
DTITLE=Peter Wells - Orphans
DYEAR=1995
DGENRE=Blues
TTITLE0=No Second Chances
TTITLE1=Wild Flowers And Weeds
TTITLE2=Taking The Pain Away
TTITLE3=Now You See It
TTITLE4=Sweet Revenge
TTITLE5=(Oh My God) Look At The Time
TTITLE6=Take Of That Blindfold
TTITLE7=Crisis Point Casino
TTITLE8=Don´t Blame It On Me
TTITLE9=I´m With You
EXTD=
EXTT0=
EXTT1=
EXTT2=
EXTT3=
EXTT4=
EXTT5=
EXTT6=
EXTT7=
EXTT8=
EXTT9=
PLAYORDER=
